<?xml version="1.0" encoding="UTF-8"?>
<svg xmlns="http://www.w3.org/2000/svg" xmlns:xlink="http://www.w3.org/1999/xlink" width="16px" height="16px" viewBox="0 0 16 16" version="1.1">
<g id="surface1">
<path style=" stroke:none;fill-rule:nonzero;fill:rgb(0%,0%,0%);fill-opacity:1;" d="M 6.703125 0.761719 C 2.113281 1.632812 -0.480469 6.273438 1.152344 10.71875 C 1.351562 11.257812 1.785156 11.992188 2.273438 12.609375 C 4.921875 16.007812 10.128906 16.289062 13.207031 13.207031 C 16.289062 10.128906 16.007812 4.921875 12.609375 2.273438 C 11.265625 1.214844 9.984375 0.742188 8.28125 0.679688 C 7.632812 0.65625 7.121094 0.679688 6.703125 0.761719 Z M 9.039062 1 C 11.96875 1.441406 14.214844 3.519531 14.9375 6.449219 C 15.128906 7.246094 15.121094 8.824219 14.929688 9.601562 C 14.238281 12.289062 12.289062 14.238281 9.601562 14.929688 C 8.824219 15.121094 7.246094 15.128906 6.449219 14.9375 C 4.351562 14.414062 2.671875 13.121094 1.726562 11.289062 C 0.664062 9.207031 0.632812 6.992188 1.640625 4.902344 C 2.671875 2.777344 4.6875 1.320312 7.089844 0.96875 C 7.800781 0.863281 8.207031 0.871094 9.039062 1 Z M 9.039062 1 "/>
<path style=" stroke:none;fill-rule:nonzero;fill:rgb(0%,0%,0%);fill-opacity:1;" d="M 7.398438 1.441406 C 7.222656 1.632812 7.265625 1.976562 7.558594 2.9375 C 7.769531 3.617188 7.894531 3.753906 8.238281 3.640625 C 8.414062 3.585938 8.503906 3.335938 8.695312 2.265625 C 8.863281 1.328125 8.832031 1.28125 8.078125 1.28125 C 7.648438 1.28125 7.519531 1.3125 7.398438 1.441406 Z M 7.398438 1.441406 "/>
<path style=" stroke:none;fill-rule:nonzero;fill:rgb(0%,0%,0%);fill-opacity:1;" d="M 5.703125 1.863281 C 5.398438 2.039062 5.28125 2.160156 5.28125 2.289062 C 5.28125 2.488281 6.648438 3.921875 6.839844 3.921875 C 7.0625 3.921875 7.28125 3.761719 7.28125 3.601562 C 7.28125 3.3125 6.792969 1.910156 6.632812 1.753906 C 6.425781 1.542969 6.191406 1.566406 5.703125 1.863281 Z M 5.703125 1.863281 "/>
<path style=" stroke:none;fill-rule:nonzero;fill:rgb(0%,0%,0%);fill-opacity:1;" d="M 9.449219 1.753906 C 9.359375 1.839844 9.167969 2.296875 9.007812 2.777344 L 8.726562 3.640625 L 8.886719 3.777344 C 8.984375 3.855469 9.121094 3.921875 9.191406 3.921875 C 9.359375 3.921875 10.800781 2.480469 10.800781 2.3125 C 10.800781 2.152344 10.609375 1.984375 10.183594 1.769531 C 9.769531 1.558594 9.640625 1.558594 9.449219 1.753906 Z M 9.449219 1.753906 "/>
<path style=" stroke:none;fill-rule:nonzero;fill:rgb(0%,0%,0%);fill-opacity:1;" d="M 4.046875 2.953125 C 3.808594 3.191406 3.671875 3.390625 3.703125 3.464844 C 3.753906 3.59375 4.929688 4.390625 5.390625 4.609375 C 5.671875 4.742188 5.679688 4.742188 5.871094 4.558594 C 6.0625 4.390625 6.0625 4.367188 5.953125 4.144531 C 5.734375 3.71875 5.105469 2.761719 4.976562 2.65625 C 4.71875 2.457031 4.449219 2.542969 4.046875 2.953125 Z M 4.046875 2.953125 "/>
<path style=" stroke:none;fill-rule:nonzero;fill:rgb(0%,0%,0%);fill-opacity:1;" d="M 11.023438 2.742188 C 10.9375 2.839844 10.671875 3.246094 10.433594 3.640625 L 10 4.351562 L 10.191406 4.542969 C 10.328125 4.679688 10.433594 4.71875 10.550781 4.679688 C 10.855469 4.585938 12.398438 3.527344 12.398438 3.414062 C 12.398438 3.351562 12.222656 3.136719 12 2.929688 C 11.550781 2.511719 11.28125 2.457031 11.023438 2.742188 Z M 11.023438 2.742188 "/>
<path style=" stroke:none;fill-rule:nonzero;fill:rgb(0%,0%,0%);fill-opacity:1;" d="M 2.976562 3.824219 C 2.648438 4.152344 2.382812 4.566406 2.433594 4.679688 C 2.488281 4.832031 4.207031 5.679688 4.449219 5.679688 C 4.609375 5.679688 4.878906 5.457031 4.878906 5.320312 C 4.878906 5.238281 4.390625 4.640625 3.886719 4.097656 C 3.464844 3.648438 3.222656 3.574219 2.976562 3.824219 Z M 2.976562 3.824219 "/>
<path style=" stroke:none;fill-rule:nonzero;fill:rgb(0%,0%,0%);fill-opacity:1;" d="M 12.320312 3.9375 C 11.929688 4.335938 11.199219 5.246094 11.199219 5.335938 C 11.199219 5.464844 11.480469 5.679688 11.648438 5.679688 C 11.878906 5.679688 13.59375 4.824219 13.648438 4.679688 C 13.695312 4.566406 13.433594 4.152344 13.105469 3.824219 C 12.886719 3.609375 12.609375 3.648438 12.320312 3.9375 Z M 12.320312 3.9375 "/>
<path style=" stroke:none;fill-rule:nonzero;fill:rgb(0%,0%,0%);fill-opacity:1;" d="M 2.007812 5.335938 C 1.800781 5.511719 1.601562 6.351562 1.726562 6.480469 C 1.832031 6.585938 3.710938 6.742188 3.953125 6.671875 C 4.152344 6.609375 4.238281 6.496094 4.238281 6.273438 C 4.238281 6.136719 4.054688 6.007812 3.367188 5.65625 C 2.433594 5.160156 2.265625 5.128906 2.007812 5.335938 Z M 2.007812 5.335938 "/>
<path style=" stroke:none;fill-rule:nonzero;fill:rgb(0%,0%,0%);fill-opacity:1;" d="M 12.703125 5.65625 C 11.910156 6.0625 11.839844 6.128906 11.839844 6.335938 C 11.839844 6.6875 12.089844 6.742188 13.265625 6.648438 C 13.816406 6.601562 14.304688 6.527344 14.351562 6.480469 C 14.480469 6.351562 14.28125 5.511719 14.070312 5.335938 C 13.816406 5.128906 13.632812 5.167969 12.703125 5.65625 Z M 12.703125 5.65625 "/>
<path style=" stroke:none;fill-rule:nonzero;fill:rgb(0%,0%,0%);fill-opacity:1;" d="M 5.535156 5.496094 C 5.480469 5.519531 5.382812 5.632812 5.320312 5.761719 L 5.207031 5.984375 L 8.089844 8.367188 C 9.671875 9.6875 11.007812 10.769531 11.0625 10.785156 C 11.214844 10.816406 11.433594 10.625 11.457031 10.433594 C 11.472656 10.296875 10.886719 9.769531 8.574219 7.847656 C 6.984375 6.527344 5.671875 5.441406 5.65625 5.449219 C 5.648438 5.449219 5.59375 5.472656 5.535156 5.496094 Z M 5.535156 5.496094 "/>
<path style=" stroke:none;fill-rule:nonzero;fill:rgb(0%,0%,0%);fill-opacity:1;" d="M 9.265625 6.34375 C 8.089844 7.167969 8.007812 7.238281 8.128906 7.367188 C 8.246094 7.496094 8.320312 7.457031 9.34375 6.703125 C 10.710938 5.6875 10.761719 5.648438 10.625 5.542969 C 10.542969 5.480469 10.199219 5.679688 9.265625 6.34375 Z M 9.265625 6.34375 "/>
<path style=" stroke:none;fill-rule:nonzero;fill:rgb(0%,0%,0%);fill-opacity:1;" d="M 9.769531 6.816406 C 9.144531 7.304688 8.648438 7.742188 8.664062 7.785156 C 8.679688 7.832031 8.742188 7.902344 8.816406 7.945312 C 9 8.0625 11.160156 6.183594 11.03125 6.03125 C 10.984375 5.96875 10.929688 5.921875 10.921875 5.921875 C 10.910156 5.921875 10.390625 6.320312 9.769531 6.816406 Z M 9.769531 6.816406 "/>
<path style=" stroke:none;fill-rule:nonzero;fill:rgb(0%,0%,0%);fill-opacity:1;" d="M 1.695312 7.089844 C 1.542969 7.191406 1.519531 7.289062 1.519531 7.710938 C 1.519531 8.441406 1.558594 8.457031 2.65625 8.199219 C 3.695312 7.953125 3.921875 7.839844 3.921875 7.558594 C 3.921875 7.34375 3.742188 7.273438 2.761719 7.121094 C 2.457031 7.070312 2.128906 7.015625 2.03125 7 C 1.945312 6.976562 1.792969 7.015625 1.695312 7.089844 Z M 1.695312 7.089844 "/>
<path style=" stroke:none;fill-rule:nonzero;fill:rgb(0%,0%,0%);fill-opacity:1;" d="M 13.160156 7.175781 C 12.328125 7.296875 12.160156 7.367188 12.160156 7.609375 C 12.160156 7.824219 12.425781 7.960938 13.304688 8.199219 C 14.375 8.488281 14.425781 8.480469 14.503906 7.878906 C 14.558594 7.425781 14.550781 7.390625 14.359375 7.214844 C 14.238281 7.121094 14.113281 7.039062 14.054688 7.046875 C 14 7.054688 13.601562 7.113281 13.160156 7.175781 Z M 13.160156 7.175781 "/>
<path style=" stroke:none;fill-rule:nonzero;fill:rgb(0%,0%,0%);fill-opacity:1;" d="M 6.398438 8.367188 C 5.039062 9.351562 4.984375 9.433594 4.878906 10.414062 C 4.808594 11.136719 4.703125 11.3125 4.3125 11.296875 C 4.007812 11.289062 3.457031 11.632812 3.351562 11.902344 C 3.3125 12.007812 3.222656 12.089844 3.144531 12.070312 C 2.832031 12.046875 2.777344 12.070312 2.878906 12.199219 C 3.078125 12.449219 3.265625 12.414062 3.777344 12.054688 C 4.054688 11.863281 4.320312 11.71875 4.375 11.734375 C 4.425781 11.753906 4.59375 11.710938 4.753906 11.648438 C 4.96875 11.558594 5.089844 11.433594 5.199219 11.183594 C 5.289062 10.992188 5.359375 10.777344 5.359375 10.703125 C 5.359375 10.632812 5.503906 10.398438 5.679688 10.199219 C 5.894531 9.945312 6 9.753906 6 9.59375 C 6 9.328125 6.113281 9.199219 6.984375 8.503906 C 7.511719 8.078125 7.527344 8.054688 7.390625 7.910156 C 7.320312 7.832031 7.246094 7.761719 7.246094 7.761719 C 7.238281 7.761719 6.863281 8.039062 6.398438 8.367188 Z M 5.664062 9.792969 C 5.710938 10.023438 5.542969 10.136719 5.382812 9.984375 C 5.273438 9.871094 5.273438 9.824219 5.359375 9.71875 C 5.488281 9.566406 5.632812 9.601562 5.664062 9.792969 Z M 5.664062 9.792969 "/>
<path style=" stroke:none;fill-rule:nonzero;fill:rgb(0%,0%,0%);fill-opacity:1;" d="M 7.03125 8.976562 C 6.425781 9.457031 6.152344 9.71875 6.03125 9.976562 L 5.863281 10.320312 L 6.070312 10.320312 C 6.222656 10.320312 6.558594 10.078125 7.265625 9.472656 C 7.800781 9.007812 8.222656 8.601562 8.199219 8.550781 C 8.167969 8.511719 8.089844 8.449219 8.007812 8.398438 C 7.886719 8.335938 7.703125 8.441406 7.03125 8.976562 Z M 7.03125 8.976562 "/>
<path style=" stroke:none;fill-rule:nonzero;fill:rgb(0%,0%,0%);fill-opacity:1;" d="M 11.6875 9.816406 C 11.519531 10.023438 11.472656 10.136719 11.527344 10.207031 C 11.710938 10.433594 11.273438 10.960938 10.992188 10.847656 C 10.878906 10.808594 10.558594 11.105469 10.367188 11.425781 C 10.304688 11.535156 10.457031 12.167969 10.550781 12.152344 C 10.609375 12.152344 12.664062 9.695312 12.703125 9.59375 C 12.71875 9.550781 12.550781 9.519531 12.335938 9.519531 C 11.96875 9.519531 11.910156 9.542969 11.6875 9.816406 Z M 11.6875 9.816406 "/>
<path style=" stroke:none;fill-rule:nonzero;fill:rgb(0%,0%,0%);fill-opacity:1;" d="M 11.71875 10.945312 L 10.617188 12.273438 L 11.046875 12.65625 C 11.289062 12.863281 11.503906 13.039062 11.527344 13.039062 C 11.566406 13.039062 13.167969 11.167969 13.632812 10.574219 C 13.785156 10.382812 13.785156 10.375 13.625 10.246094 C 13.527344 10.175781 13.320312 10.007812 13.144531 9.863281 L 12.832031 9.609375 Z M 11.71875 10.945312 "/>
<path style=" stroke:none;fill-rule:nonzero;fill:rgb(0%,0%,0%);fill-opacity:1;" d="M 3.960938 9.953125 C 3.703125 10.0625 3.519531 10.359375 3.519531 10.664062 C 3.519531 10.785156 3.367188 10.945312 3.039062 11.183594 C 2.574219 11.519531 2.488281 11.679688 2.632812 11.902344 C 2.679688 11.984375 2.710938 11.984375 2.800781 11.878906 C 2.855469 11.816406 2.871094 11.761719 2.839844 11.761719 C 2.808594 11.761719 2.824219 11.710938 2.878906 11.648438 C 2.929688 11.585938 3.023438 11.550781 3.089844 11.574219 C 3.152344 11.601562 3.359375 11.488281 3.550781 11.328125 C 3.847656 11.089844 3.902344 11 3.894531 10.769531 C 3.886719 10.375 4.039062 10.222656 4.433594 10.257812 C 4.71875 10.273438 4.753906 10.257812 4.808594 10.054688 C 4.863281 9.847656 4.855469 9.839844 4.535156 9.839844 C 4.351562 9.847656 4.089844 9.894531 3.960938 9.953125 Z M 3.960938 9.953125 "/>
<path style=" stroke:none;fill-rule:nonzero;fill:rgb(0%,0%,0%);fill-opacity:1;" d="M 8.28125 11.078125 C 8.433594 11.441406 8.433594 11.761719 8.273438 11.984375 C 8.023438 12.34375 7.777344 12.152344 7.703125 11.527344 C 7.679688 11.304688 7.632812 11.121094 7.601562 11.121094 C 7.566406 11.121094 7.480469 11.246094 7.398438 11.40625 C 7.273438 11.6875 7.273438 11.800781 7.40625 12.457031 C 7.449219 12.65625 7.425781 12.71875 7.289062 12.792969 C 7.046875 12.929688 6.769531 12.632812 6.832031 12.3125 C 6.878906 12.046875 6.800781 12.015625 6.625 12.214844 C 6.425781 12.441406 6.382812 12.6875 6.480469 13.054688 C 6.695312 13.847656 7.296875 14.28125 8.128906 14.222656 C 8.542969 14.199219 8.6875 14.152344 8.9375 13.945312 C 9.320312 13.640625 9.496094 13.335938 9.558594 12.878906 L 9.609375 12.519531 L 9.480469 12.734375 C 9.351562 12.96875 9.023438 13.046875 8.910156 12.871094 C 8.878906 12.824219 8.902344 12.59375 8.960938 12.351562 C 9.046875 12.007812 9.046875 11.878906 8.960938 11.671875 C 8.832031 11.375 8.519531 10.992188 8.3125 10.878906 C 8.175781 10.800781 8.175781 10.816406 8.28125 11.078125 Z M 8.28125 11.078125 "/>
</g>
</svg>
